HIERARCHY
ROOT hip
{
	OFFSET 0.000000 0.000000 0.000000 
	CHANNELS 6 Xposition Yposition Zposition Xrotation Zrotation Yrotation
	JOINT abdomen
	{
		OFFSET 0.000000 3.402643 0.000000 
		CHANNELS 3 Xrotation Zrotation Yrotation
		JOINT chest
		{
			OFFSET 0.000000 8.438565 -0.680529 
			CHANNELS 3 Xrotation Zrotation Yrotation
			JOINT neck
			{
				OFFSET 0.000000 10.207942 -0.272212 
				CHANNELS 3 Xrotation Zrotation Yrotation
				JOINT head
				{
					OFFSET 0.000000 3.130431 0.000000 
					CHANNELS 3 Xrotation Zrotation Yrotation
					End Site
					{
						OFFSET 0.000000 3.130435 0.000000 
					}
				}
			}
			JOINT lCollar
			{
				OFFSET 3.470700 6.669187 -0.816635 
				CHANNELS 3 Yrotation Zrotation Xrotation
				JOINT lShldr
				{
					OFFSET 3.198488 0.000000 0.000000 
					CHANNELS 3 Zrotation Yrotation Xrotation
					JOINT lForeArm
					{
						OFFSET 10.139888 0.000000 0.000000 
						CHANNELS 3 Yrotation Zrotation Xrotation
						JOINT lHand
						{
							OFFSET 8.370511 0.000000 0.000000 
							CHANNELS 3 Zrotation Yrotation Xrotation
							End Site
							{
								OFFSET 4.083176 0.000000 0.000000 
							}
						}
					}
				}
			}
			JOINT rCollar
			{
				OFFSET -3.470700 6.669187 -0.816635 
				CHANNELS 3 Yrotation Zrotation Xrotation
				JOINT rShldr
				{
					OFFSET -3.198488 0.000000 0.000000 
					CHANNELS 3 Zrotation Yrotation Xrotation
					JOINT rForeArm
					{
						OFFSET -10.139888 0.000000 0.000000 
						CHANNELS 3 Yrotation Zrotation Xrotation
						JOINT rHand
						{
							OFFSET -8.370511 0.000000 0.000000 
							CHANNELS 3 Zrotation Yrotation Xrotation
							End Site
							{
								OFFSET -4.083176 0.000000 0.000000 
							}
						}
					}
				}
			}
		}
	}
	JOINT lThigh
	{
		OFFSET 5.308129 -1.633274 1.361059 
		CHANNELS 3 Xrotation Zrotation Yrotation
		JOINT lShin
		{
			OFFSET -2.041588 -20.007561 0.000000 
			CHANNELS 3 Xrotation Zrotation Yrotation
			JOINT lFoot
			{
				OFFSET 0.000000 -19.190928 -1.224953 
				CHANNELS 3 Xrotation Yrotation Zrotation
				End Site
				{
					OFFSET 0.000000 -2.449906 4.627600 
				}
			}
		}
	}
	JOINT rThigh
	{
		OFFSET -5.308129 -1.633274 1.361059 
		CHANNELS 3 Xrotation Zrotation Yrotation
		JOINT rShin
		{
			OFFSET 2.041588 -20.007561 0.000000 
			CHANNELS 3 Xrotation Zrotation Yrotation
			JOINT rFoot
			{
				OFFSET 0.000000 -19.190928 -1.224953 
				CHANNELS 3 Xrotation Yrotation Zrotation
				End Site
				{
					OFFSET 0.000000 -2.449906 4.627600 
				}
			}
		}
	}
}
MOTION
Frames: 11
Frame Time: 0.033333
29.255981 46.226227 -35.682964 -1.201353 -0.995875 24.532600 0.000000 0.000000 0.000000 12.233403 -4.371492 6.933824 12.772223 -2.361789 -2.117073 8.505200 6.640615 -8.751528 2.368932 -7.556556 11.738537 -49.703453 4.373573 14.989482 -61.068832 -6.229888 33.618866 11.273664 14.308840 -2.558159 6.107517 14.225956 12.283224 37.511703 10.042148 25.386467 49.707088 10.517257 16.238022 -14.764914 -7.197766 -3.066358 -17.154058 15.033786 11.322398 45.972023 -6.701956 8.532454 -24.443981 1.460864 -6.720680 -19.693632 -10.729958 -8.739623 47.828743 1.686048 -14.122745 -22.904926 -1.394113 6.757699 
29.640306 46.516800 -35.974915 -1.357842 -1.425381 20.531818 0.000000 0.000000 0.000000 11.580347 -4.573356 6.173178 12.465838 -2.036153 -3.190806 8.613339 6.269531 -8.728336 1.511290 -7.952667 11.092916 -49.162769 3.662799 14.664216 -61.013321 -6.188265 33.490280 10.970356 15.628789 -2.485980 5.497069 14.907743 11.674326 36.835537 8.633037 26.901119 50.347187 10.663030 16.252567 -15.012520 -6.618648 -3.118045 -15.448090 15.213057 12.533091 44.444775 -7.547122 11.151194 -24.231501 1.474623 -6.857115 -19.148207 -10.330253 -11.464505 48.430439 3.463957 -15.413994 -22.344759 -0.887551 4.493084 
30.017206 46.781826 -36.171364 -1.680360 -1.620397 16.639307 0.000000 0.000000 0.000000 11.219294 -4.665379 5.599023 12.087054 -1.921558 -3.760559 8.662448 6.142575 -8.615733 0.987688 -7.781575 10.749366 -49.690861 1.942948 14.164018 -60.595821 -6.325454 33.275711 10.212134 15.957079 -2.535160 5.088851 14.481406 11.305878 37.463371 7.143762 27.702766 50.578156 10.527703 15.995591 -16.303167 -8.594649 -2.828155 -13.631749 14.900527 13.303612 42.894096 -8.018859 14.241686 -23.939861 1.538563 -7.358013 -18.803299 -10.464122 -13.708679 49.740925 5.034718 -15.544824 -20.364191 -0.619356 3.394363 
30.327785 47.012493 -36.264359 -1.993199 -1.825068 12.836909 0.000000 0.000000 0.000000 10.885598 -4.632297 5.252539 11.792922 -1.981266 -4.021448 8.465964 6.308575 -8.599010 0.417771 -7.925565 10.408829 -50.010948 0.054443 13.932164 -60.287342 -6.478268 33.171562 9.490611 16.063189 -2.608668 4.677515 14.269467 10.998851 37.915058 5.227806 28.320097 50.553387 10.329712 16.808779 -16.659460 -8.513588 -2.822878 -11.972651 14.159925 13.384164 41.417221 -7.906987 17.675919 -23.579609 1.736802 -8.338021 -17.944326 -10.454197 -15.408840 49.308075 6.390330 -16.124046 -18.931898 -0.473821 2.812249 
30.574818 47.204533 -36.258320 -2.325679 -2.029578 8.978843 0.000000 0.000000 0.000000 10.572111 -4.637080 4.838337 11.314960 -1.876839 -4.386552 8.652586 5.693357 -8.353564 -0.050570 -7.925097 10.088604 -50.493935 -1.918643 13.614285 -59.975544 -6.563960 33.245789 8.928456 15.847875 -2.689882 4.364305 14.301368 10.665935 38.113136 3.448897 28.720905 50.585941 10.375733 16.923773 -16.251850 -8.502676 -2.843837 -10.292736 13.456213 13.393365 40.071907 -7.741848 20.898590 -23.255222 1.922290 -9.382131 -16.658520 -10.310726 -16.432821 47.457657 7.644754 -16.036100 -17.662792 -0.488562 3.118534 
30.714125 47.353783 -36.220566 -2.453361 -2.419658 5.962923 0.000000 0.000000 0.000000 10.148385 -4.470260 4.043830 11.340850 -1.575204 -4.841211 7.691145 5.477825 -8.016393 -0.953598 -7.842387 9.638692 -50.686115 -3.910416 13.625314 -59.875698 -6.666242 33.054840 9.026634 15.952586 -2.668400 3.739480 14.685718 10.213711 38.187927 1.471895 29.293278 50.512085 10.526257 17.092855 -16.309860 -8.634324 -2.828556 -9.205688 13.039035 13.162123 39.032219 -7.377081 23.165741 -22.866875 2.088796 -10.266023 -15.463454 -9.837630 -16.731098 44.731689 8.649776 -16.014568 -16.739086 -0.533440 3.585185 
30.780699 47.464149 -36.148960 -2.199212 -2.410335 2.953781 0.000000 0.000000 0.000000 9.658401 -4.457654 3.303935 11.021435 -1.883768 -5.093119 7.229031 5.906516 -7.875094 -1.674276 -8.545280 9.128616 -50.177467 -6.196186 13.459154 -60.125416 -6.565055 34.251827 7.111252 15.664776 -2.900712 3.193282 13.828915 9.705728 39.590027 -0.414200 29.653971 50.011471 10.349970 17.684727 -15.581753 -8.491970 -2.874597 -8.348931 12.419722 12.884561 37.956944 -7.228918 25.143240 -22.527098 2.214012 -11.062609 -14.799706 -9.623052 -16.565403 41.743385 9.352712 -16.316021 -16.097036 -0.578075 4.030120 
30.759176 47.548084 -36.032936 -1.964561 -2.361894 0.393425 0.000000 0.000000 0.000000 9.345227 -4.480993 2.525050 10.724868 -1.911293 -5.603621 6.394837 5.825776 -7.665540 -2.579306 -8.765929 8.759565 -50.040665 -8.905976 12.718250 -60.415237 -5.846297 39.455746 2.480768 15.557757 -3.403212 2.041203 14.087989 9.403582 39.557934 -2.120454 30.293682 50.193668 10.172633 17.786930 -14.393203 -8.786228 -2.896170 -7.370246 12.052441 12.847547 36.996872 -7.263135 26.325226 -22.399971 2.315067 -11.628761 -14.782950 -9.440886 -16.323656 39.682388 9.859838 -17.520220 -16.059456 -0.442789 3.089078 
30.686064 47.590618 -35.897400 -1.817537 -2.020468 -1.723048 0.000000 0.000000 0.000000 9.310279 -4.799517 1.479246 10.364877 -1.519108 -6.480316 5.476544 4.963339 -7.057748 -3.569218 -7.883287 8.659998 -50.782459 -12.473965 12.720325 -60.068153 -5.948176 38.592808 3.748765 15.990932 -3.266252 1.100263 14.377680 9.288757 39.812538 -3.607047 30.284557 50.000042 10.209635 18.037859 -12.972805 -8.682885 -2.976412 -6.531860 11.382810 12.579780 36.156513 -7.168025 27.426256 -22.219095 2.418171 -12.215083 -14.704658 -9.528625 -16.056955 37.444614 10.151491 -18.642405 -16.156981 -0.338172 2.319495 
30.511642 47.606480 -35.598900 -1.758834 -1.952206 -4.080725 0.000000 0.000000 0.000000 9.201836 -4.752782 0.890554 9.998995 -1.442246 -6.796555 4.955701 5.194590 -6.922034 -4.246175 -7.579069 8.521538 -50.487526 -15.863674 12.775848 -59.281834 -6.605389 34.740242 8.261410 15.224246 -2.798038 0.604133 14.620884 9.141514 40.396969 -5.677102 30.469652 50.054035 10.033850 18.682405 -13.814412 -8.469748 -2.963014 -5.310145 11.182444 12.746063 35.442348 -7.235094 28.626886 -22.219286 2.587328 -13.045897 -14.584953 -9.252422 -15.713955 35.562618 10.377973 -19.802317 -16.120230 -0.234038 1.648199 
30.284122 47.572865 -35.398186 -1.123497 -1.620782 -4.987763 0.000000 0.000000 0.000000 8.954639 -4.582377 -0.496677 9.704275 -1.369308 -7.759493 4.002210 5.499904 -6.769912 -5.667570 -7.546884 8.155900 -49.998985 -18.999866 12.194426 -59.100288 -6.487285 35.200333 8.261410 15.224246 -2.798038 -0.557878 14.828405 8.776748 40.842876 -7.428443 30.753996 50.242691 9.816388 19.468485 -13.548556 -9.948595 -2.817204 -5.476262 10.880466 12.488125 35.239578 -7.077403 29.812204 -21.962906 2.716719 -13.905495 -15.397065 -9.635134 -15.839891 34.507015 10.806697 -21.390186 -16.048206 -0.178524 1.192915 
